<?xml version="1.0" standalone="no"?>
<!DOCTYPE svg PUBLIC "-//W3C//DTD SVG 20010904//EN"
 "http://www.w3.org/TR/2001/REC-SVG-20010904/DTD/svg10.dtd">
<svg version="1.0" xmlns="http://www.w3.org/2000/svg"
 width="16.000000pt" height="16.000000pt" viewBox="0 0 16.000000 16.000000"
 preserveAspectRatio="xMidYMid meet">
<metadata>
Created by potrace 1.11, written by Peter Selinger 2001-2013
</metadata>
<g transform="translate(0.000000,16.000000) scale(0.000847,-0.000847)"
fill="#000000" stroke="none">
<path d="M7075 12145 c-115 -7 -234 -14 -262 -14 l-53 -1 0 -45 c0 -41 2 -45
28 -51 119 -26 173 -64 192 -134 7 -25 9 -284 8 -754 l-3 -716 -25 -25 c-18
-18 -45 -29 -88 -37 l-62 -12 0 -43 0 -43 380 0 380 0 0 44 c0 42 -2 45 -32
51 -51 10 -112 42 -128 67 -13 20 -16 140 -20 873 l-5 850 -50 1 c-27 1 -144
-4 -260 -11z"/>
<path d="M7962 12142 c-113 -41 -174 -144 -150 -257 8 -40 20 -60 62 -100 74
-73 161 -93 254 -61 100 36 158 113 156 211 -1 68 -17 106 -66 151 -72 68
-165 88 -256 56z"/>
<path d="M10595 12151 c-115 -29 -199 -146 -180 -249 25 -139 174 -223 318
-180 22 7 62 33 89 58 61 56 84 123 67 200 -12 57 -64 122 -119 150 -44 22
-131 33 -175 21z"/>
<path d="M5815 12035 c-305 -58 -529 -222 -656 -480 -78 -160 -93 -228 -93
-435 0 -208 15 -277 94 -437 110 -223 322 -382 585 -439 120 -26 344 -23 450
5 163 44 314 139 408 259 52 67 117 171 117 189 0 12 -78 63 -96 63 -5 0 -27
-28 -49 -63 -59 -92 -178 -206 -255 -245 -130 -65 -285 -77 -417 -31 -148 50
-239 154 -302 344 -39 118 -51 213 -51 403 0 236 24 369 90 508 79 166 188
244 350 252 108 5 174 -12 258 -69 34 -22 82 -66 107 -97 54 -68 134 -223 166
-321 l23 -71 53 0 53 0 0 223 c0 123 -3 265 -6 315 l-7 92 -49 0 c-40 0 -56
-6 -88 -31 l-40 -32 -57 26 c-32 14 -98 38 -148 52 -115 34 -317 43 -440 20z"/>
<path d="M9450 11492 c-85 -29 -128 -54 -212 -127 l-78 -66 0 91 c0 75 -3 92
-16 97 -17 6 -478 -13 -546 -23 -37 -6 -38 -7 -38 -49 l0 -43 44 -6 c61 -9
107 -42 134 -96 22 -45 23 -46 20 -442 l-3 -398 -25 -25 c-18 -18 -45 -29 -88
-36 l-62 -11 0 -44 0 -44 370 0 370 0 0 44 c0 42 -2 45 -32 52 -58 12 -97 37
-113 70 -13 27 -15 88 -15 381 l0 349 43 45 c63 66 135 99 217 99 109 0 160
-50 180 -176 13 -75 13 -636 0 -689 -12 -51 -37 -71 -100 -80 l-50 -7 0 -44 0
-44 370 0 370 0 0 44 c0 43 -1 44 -37 51 -59 10 -119 43 -131 71 -8 17 -12
130 -12 368 0 363 -6 427 -46 511 -37 78 -78 121 -152 157 -63 31 -73 33 -187
35 -94 2 -132 -1 -175 -15z"/>
<path d="M11702 11491 c-230 -58 -406 -220 -475 -436 -32 -101 -31 -288 2
-395 35 -114 76 -183 152 -255 129 -121 269 -169 494 -169 126 0 147 3 207 26
37 14 93 41 124 59 62 38 177 155 211 217 l22 40 -46 30 -47 31 -34 -50 c-83
-124 -161 -171 -294 -177 -79 -4 -93 -2 -142 22 -97 47 -176 154 -212 283 -22
79 -21 301 1 408 32 156 105 261 197 285 52 15 106 7 131 -18 18 -19 18 -21
-3 -98 -54 -192 7 -283 193 -284 97 0 148 22 176 78 66 130 8 288 -133 359
-92 47 -134 55 -296 59 -127 3 -168 0 -228 -15z"/>
<path d="M13000 11503 c-130 -22 -272 -82 -333 -141 -53 -50 -67 -82 -67 -145
0 -107 75 -167 210 -167 119 1 180 38 199 122 7 29 2 63 -24 174 -6 28 -4 31
32 47 89 38 164 33 219 -15 46 -41 64 -106 64 -235 l0 -103 -36 -15 c-20 -8
-127 -42 -236 -75 -308 -93 -399 -143 -455 -254 -35 -67 -44 -195 -19 -260 35
-92 103 -154 205 -186 159 -50 366 -4 495 111 45 40 50 42 60 25 73 -123 129
-150 311 -150 95 1 122 5 195 30 l85 29 0 45 0 45 -73 5 c-68 5 -76 8 -103 38
l-30 33 2 367 c1 261 -2 380 -11 412 -39 143 -149 232 -325 260 -58 10 -314
12 -365 3z m258 -1026 c-97 -84 -230 -73 -281 24 -14 27 -17 51 -14 115 6 140
65 206 249 280 l83 33 3 -207 3 -207 -43 -38z"/>
<path d="M7880 11475 c-113 -7 -208 -14 -212 -14 -5 -1 -8 -21 -8 -46 0 -40 3
-45 23 -46 29 -1 107 -30 135 -50 13 -9 32 -34 42 -55 19 -36 20 -61 20 -416
0 -415 -2 -433 -58 -462 -16 -8 -52 -18 -80 -22 l-52 -7 0 -43 0 -44 385 0
385 0 0 44 c0 42 -2 45 -32 51 -51 10 -112 42 -128 67 -13 19 -16 103 -20 538
l-5 515 -95 1 c-52 1 -187 -4 -300 -11z"/>
<path d="M10490 11475 c-113 -7 -208 -14 -212 -14 -5 -1 -8 -21 -8 -46 0 -38
3 -45 20 -45 36 0 126 -40 153 -68 15 -16 32 -44 37 -63 14 -47 13 -743 -1
-792 -13 -47 -53 -74 -126 -83 l-53 -6 0 -44 0 -44 385 0 385 0 0 44 0 44 -47
12 c-56 13 -107 43 -120 68 -4 9 -10 249 -13 532 l-5 515 -95 1 c-52 1 -187
-4 -300 -11z"/>
<path d="M1375 9036 c-267 -52 -450 -218 -487 -441 -25 -150 38 -333 150 -436
82 -76 148 -108 393 -190 118 -39 242 -85 277 -102 72 -35 137 -94 158 -142
17 -42 18 -134 2 -187 -17 -57 -87 -131 -150 -159 -75 -33 -228 -38 -314 -11
-162 51 -307 201 -420 435 l-47 97 -48 0 -49 0 0 -88 c0 -49 3 -191 7 -315 l6
-227 51 0 c45 0 54 4 92 41 l42 42 84 -36 c372 -159 792 -115 1014 107 113
113 164 247 151 399 -15 180 -106 311 -275 400 -39 20 -168 70 -289 111 -301
101 -369 138 -416 224 -21 38 -27 63 -27 110 0 189 201 305 422 242 58 -17
153 -86 203 -148 41 -51 130 -217 169 -314 15 -37 16 -38 65 -38 l51 0 0 173
c0 96 -3 229 -7 295 l-6 122 -51 0 c-44 0 -55 -4 -86 -35 l-36 -35 -80 35
c-45 19 -116 44 -160 56 -102 26 -292 34 -389 15z"/>
<path d="M7075 9035 c-306 -58 -530 -222 -655 -480 -79 -160 -95 -238 -94
-440 1 -203 16 -274 94 -432 110 -223 320 -381 585 -439 118 -26 344 -24 447
4 159 43 299 127 392 236 50 59 136 193 136 212 0 7 -22 26 -49 42 l-49 30
-57 -84 c-169 -249 -413 -346 -663 -263 -162 54 -277 208 -330 447 -22 98 -24
493 -4 587 51 233 137 372 271 438 80 39 204 49 292 23 78 -22 170 -85 224
-153 55 -69 134 -224 166 -322 l23 -71 53 0 53 0 0 248 c0 136 -3 277 -7 315
l-6 67 -49 0 c-40 0 -56 -6 -88 -31 l-40 -32 -57 26 c-32 14 -98 38 -148 52
-115 34 -317 43 -440 20z"/>
<path d="M12570 8665 l0 -184 -112 -3 -113 -3 0 -65 0 -65 107 -3 107 -3 3
-422 c3 -416 4 -423 27 -482 31 -78 99 -146 172 -171 43 -15 83 -19 194 -19
144 0 153 2 293 53 l72 27 0 50 0 51 -93 -9 c-150 -15 -215 14 -242 105 -12
42 -15 121 -15 435 l0 383 168 2 167 3 0 65 0 65 -172 3 -173 2 0 185 0 185
-195 0 -195 0 0 -185z"/>
<path d="M8685 8513 c-316 -19 -542 -165 -505 -327 5 -22 17 -51 27 -65 71
-98 304 -96 364 3 23 38 25 116 4 176 -8 23 -15 50 -15 60 0 27 75 55 146 55
51 0 67 -5 96 -27 60 -46 73 -85 73 -228 l0 -125 -115 -37 c-63 -20 -169 -53
-235 -73 -66 -20 -156 -54 -200 -74 -140 -65 -205 -164 -205 -311 0 -112 37
-185 123 -244 162 -109 426 -80 589 64 45 39 68 45 68 17 0 -22 61 -87 100
-107 93 -47 259 -49 402 -4 l78 25 0 49 0 50 -61 0 c-69 0 -110 19 -130 59 -9
19 -11 120 -10 391 2 406 -1 432 -62 512 -78 102 -182 146 -373 156 -66 4
-137 6 -159 5z m185 -1003 c-6 -11 -32 -34 -58 -52 -41 -29 -55 -33 -114 -33
-112 0 -158 53 -158 181 0 138 74 221 257 292 l78 30 3 -199 c1 -124 -2 -207
-8 -219z"/>
<path d="M13965 8509 c-224 -17 -427 -120 -465 -233 -19 -58 -5 -120 37 -167
43 -48 91 -62 193 -57 61 2 84 8 113 28 68 46 83 117 48 229 l-19 62 40 20
c104 53 212 26 257 -64 20 -41 25 -69 29 -166 l5 -118 -39 -15 c-22 -9 -129
-44 -239 -77 -371 -115 -456 -177 -485 -354 -33 -206 97 -353 324 -365 146 -7
269 33 380 122 45 37 60 45 67 35 5 -8 9 -17 9 -22 0 -4 19 -28 41 -52 57 -61
118 -79 264 -79 91 1 124 6 193 28 l82 27 0 49 0 50 -60 0 c-69 0 -103 13
-127 49 -16 24 -18 60 -18 411 l0 385 -28 60 c-15 33 -42 75 -60 93 -38 40
-121 84 -192 102 -66 16 -250 27 -350 19z m233 -790 l-3 -211 -30 -25 c-129
-107 -279 -74 -305 68 -20 109 20 211 105 271 36 26 208 106 229 107 4 1 7
-94 4 -210z"/>
<path d="M15865 8508 c-118 -11 -194 -46 -304 -142 -36 -31 -68 -56 -73 -56
-4 0 -8 41 -8 90 l0 90 -57 0 c-71 0 -418 -18 -490 -26 l-53 -5 0 -44 0 -43
44 -6 c50 -8 99 -38 130 -79 20 -28 21 -41 24 -430 2 -281 -1 -409 -9 -428
-13 -32 -55 -54 -121 -64 l-48 -7 0 -44 0 -44 370 0 370 0 0 44 c0 43 0 44
-43 55 -58 14 -94 44 -107 89 -6 22 -10 173 -10 370 l0 333 46 49 c65 69 131
100 214 100 84 0 125 -24 160 -95 l25 -50 0 -373 0 -374 -27 -23 c-16 -14 -47
-26 -77 -30 l-51 -7 0 -44 0 -44 370 0 370 0 0 45 c0 32 -4 45 -14 45 -33 0
-117 35 -138 57 -23 25 -23 25 -28 416 -5 380 -6 394 -29 450 -70 175 -209
247 -436 225z"/>
<path d="M17250 8508 c-184 -13 -332 -80 -449 -203 -119 -126 -168 -270 -158
-469 12 -256 145 -450 375 -546 205 -86 503 -76 698 24 217 110 334 309 334
566 0 182 -55 325 -170 440 -145 145 -356 208 -630 188z m206 -124 c69 -47
105 -114 130 -240 24 -121 25 -435 1 -544 -23 -107 -72 -197 -125 -235 -39
-27 -52 -30 -117 -30 -65 0 -78 3 -116 30 -52 37 -93 108 -120 211 -18 67 -21
109 -22 284 -1 271 24 395 97 477 51 59 82 73 162 73 60 0 77 -4 110 -26z"/>
<path d="M2940 8504 c-190 -37 -354 -126 -390 -214 -17 -42 -8 -134 16 -168
34 -47 98 -72 181 -72 117 0 181 36 203 114 12 43 9 61 -26 183 -13 46 110 86
194 64 48 -13 96 -64 111 -118 6 -21 11 -86 11 -145 l0 -108 -37 -15 c-21 -9
-119 -40 -218 -70 -322 -96 -416 -148 -471 -261 -36 -74 -44 -179 -19 -255 65
-195 342 -269 582 -155 39 19 92 53 116 75 46 42 67 51 67 28 0 -26 60 -97 99
-117 106 -54 344 -46 464 16 25 13 28 20 25 57 l-3 42 -72 5 c-62 4 -76 9
-100 33 l-28 28 0 372 c0 205 -4 388 -9 407 -22 91 -90 181 -164 219 -86 44
-141 53 -327 56 -99 2 -191 1 -205 -1z m259 -1026 c-129 -116 -299 -50 -299
117 0 145 67 225 250 299 l85 34 3 -206 3 -207 -42 -37z"/>
<path d="M4828 8496 c-80 -23 -133 -54 -217 -127 l-81 -70 0 91 c0 75 -3 92
-16 97 -17 6 -478 -13 -546 -23 -37 -6 -38 -7 -38 -49 0 -41 1 -43 34 -48 59
-9 106 -38 134 -80 l27 -41 3 -378 c2 -251 -1 -391 -8 -418 -14 -50 -51 -75
-126 -85 l-54 -6 0 -45 0 -44 375 0 375 0 0 44 c0 42 -2 45 -32 51 -56 12 -98
37 -113 66 -12 23 -15 92 -15 382 l0 353 35 42 c53 61 142 102 223 102 79 0
123 -23 155 -84 21 -40 22 -50 25 -424 l3 -382 -24 -24 c-16 -16 -41 -26 -75
-31 l-52 -7 0 -44 0 -44 365 0 365 0 0 43 0 44 -61 17 c-33 9 -71 27 -85 41
l-24 24 0 343 c0 189 -5 372 -11 408 -21 135 -94 240 -198 289 -49 22 -71 26
-176 28 -77 1 -137 -3 -167 -11z"/>
<path d="M11472 8490 c-348 -94 -541 -442 -447 -805 78 -301 344 -470 710
-452 154 8 275 50 393 139 53 40 162 163 162 183 0 6 -19 26 -43 43 l-44 31
-37 -50 c-46 -62 -140 -132 -207 -154 -76 -26 -236 -17 -304 15 -128 62 -196
189 -212 393 l-6 87 412 0 411 0 0 80 c0 244 -109 399 -340 483 -84 30 -347
35 -448 7z m278 -118 c48 -48 68 -114 77 -249 l6 -103 -198 0 -198 0 7 78 c8
98 27 170 60 226 36 62 77 86 150 86 54 0 61 -3 96 -38z"/>
<path d="M9470 8437 c0 -43 1 -44 43 -56 41 -13 100 -50 125 -81 14 -16 435
-853 497 -988 l38 -82 -24 -52 c-25 -54 -92 -152 -136 -200 l-25 -26 -73 73
c-108 108 -190 129 -295 75 -99 -50 -118 -195 -37 -286 52 -60 99 -79 202 -79
118 0 179 27 274 122 135 136 164 190 518 978 181 403 216 470 266 506 22 16
58 34 79 41 36 11 38 13 38 55 l0 43 -255 0 -255 0 0 -43 0 -44 62 -17 c81
-23 118 -49 118 -86 0 -26 -65 -189 -189 -475 -29 -66 -54 -122 -56 -124 -6
-5 -315 618 -315 634 0 21 38 43 97 56 l53 12 0 44 0 43 -375 0 -375 0 0 -43z"/>
</g>
</svg>
