<?xml version="1.0" standalone="no"?>
<!DOCTYPE svg PUBLIC "-//W3C//DTD SVG 20010904//EN"
 "http://www.w3.org/TR/2001/REC-SVG-20010904/DTD/svg10.dtd">
<svg version="1.0" xmlns="http://www.w3.org/2000/svg"
 width="3769.000000pt" height="1309.000000pt" viewBox="0 0 3769.000000 1309.000000"
 preserveAspectRatio="xMidYMid meet">

<g transform="translate(0.000000,1309.000000) scale(0.100000,-0.100000)"
fill="#000000" stroke="none">
<path d="M6795 9140 c-252 -252 -457 -461 -455 -463 73 -54 192 -162 286 -259
199 -207 332 -397 459 -661 187 -386 278 -769 300 -1257 6 -132 -8 -490 -21
-533 -5 -16 59 -17 1338 -15 l1343 3 33 23 c18 13 40 38 50 55 16 30 17 128
17 1537 0 1487 0 1505 -20 1539 -11 19 -33 43 -48 55 l-28 21 -1395 3 -1394 2
-2 205 -3 205 -460 -460z"/>
<path d="M4584 6929 l-979 -979 203 0 202 0 0 -974 c0 -902 1 -975 17 -978 44
-8 282 13 396 36 410 83 756 280 1077 612 330 340 547 764 650 1268 51 251 66
603 35 843 -50 383 -191 718 -404 957 -59 67 -170 169 -202 186 -12 7 -231
-207 -995 -971z"/>
<path d="M6402 7793 c63 -103 171 -335 212 -453 88 -259 126 -483 133 -786 9
-380 -41 -708 -162 -1064 -392 -1146 -1379 -2018 -2485 -2193 -19 -3 -17 -5 9
-6 97 -4 391 56 587 120 445 144 846 392 1194 739 289 288 522 626 683 992
395 894 344 1889 -134 2615 -77 116 -101 139 -37 36z"/>
<path d="M7241 5310 c-53 -213 -189 -566 -312 -811 -185 -370 -383 -653 -634
-905 -194 -196 -399 -351 -625 -474 -52 -28 -96 -53 -99 -56 -3 -2 350 -3 784
-2 l790 3 37 23 c21 13 45 40 57 66 21 42 21 47 19 1127 -3 943 -5 1077 -17
1029z"/>
<path d="M9145 4994 c-287 -29 -455 -94 -591 -229 -134 -132 -180 -261 -171
-475 8 -177 48 -275 161 -385 53 -52 97 -83 171 -122 128 -66 217 -96 552
-182 150 -39 307 -84 351 -101 158 -61 275 -153 328 -259 28 -53 29 -63 29
-187 l0 -130 -38 -76 c-45 -92 -127 -173 -222 -218 -244 -116 -667 -115 -902
3 -134 68 -221 165 -275 305 l-32 83 -35 -6 c-20 -4 -76 -16 -124 -27 l-89
-20 7 -37 c10 -54 57 -160 98 -223 114 -171 296 -285 543 -338 136 -30 464
-39 609 -17 394 61 651 268 711 577 20 100 14 253 -11 340 -47 157 -158 284
-320 367 -130 66 -220 96 -567 187 -307 81 -423 122 -511 180 -107 71 -159
148 -179 264 -32 186 66 376 234 455 128 61 343 88 528 67 281 -31 443 -146
515 -366 l16 -50 125 25 c145 30 141 24 91 146 -100 245 -279 378 -582 430
-89 15 -344 27 -420 19z"/>
<path d="M18064 4990 c-266 -28 -493 -129 -660 -295 -165 -163 -263 -366 -316
-655 -18 -95 -21 -156 -22 -350 -1 -253 6 -318 54 -505 50 -193 116 -326 231
-470 155 -193 408 -327 685 -365 132 -18 395 -8 500 18 243 62 463 210 616
416 51 69 128 189 128 201 0 5 -212 106 -215 103 -2 -2 -13 -23 -25 -48 -163
-324 -489 -509 -855 -486 -241 15 -423 94 -571 248 -77 79 -114 135 -169 251
-84 178 -119 363 -119 632 0 418 93 690 300 884 140 130 315 197 545 208 200
9 340 -19 501 -104 94 -48 228 -180 287 -279 l42 -72 87 33 c48 19 100 38 115
44 l29 11 -28 48 c-116 201 -251 336 -424 422 -89 45 -189 78 -290 96 -106 18
-319 25 -426 14z"/>
<path d="M35150 4990 c-284 -30 -507 -129 -692 -308 -133 -128 -211 -258 -278
-461 -51 -155 -70 -272 -77 -476 -6 -184 5 -316 39 -474 109 -508 444 -839
928 -916 108 -17 350 -20 455 -5 262 38 484 148 655 327 96 100 143 167 205
291 84 169 129 353 144 580 52 770 -309 1316 -941 1426 -111 20 -328 27 -438
16z m428 -239 c297 -75 511 -277 615 -581 117 -345 92 -843 -59 -1143 -149
-296 -401 -455 -754 -474 -459 -24 -801 206 -944 637 -55 165 -70 267 -70 485
0 222 16 332 71 498 109 327 346 533 681 593 112 19 353 12 460 -15z"/>
<path d="M11025 3723 c-264 -680 -490 -1263 -502 -1295 l-22 -59 135 3 136 3
144 380 c79 209 148 390 153 403 l11 22 574 0 c447 0 576 -3 583 -12 6 -7 77
-190 159 -405 l149 -393 137 0 136 0 -26 69 c-15 38 -241 620 -502 1295 l-475
1226 -155 0 -155 0 -480 -1237z m688 877 c26 -76 137 -376 247 -666 110 -289
200 -532 200 -540 0 -12 -78 -14 -506 -14 -401 0 -505 3 -501 13 2 6 99 262
215 567 116 305 227 606 248 668 21 61 40 112 43 112 4 0 27 -63 54 -140z"/>
<path d="M13210 3665 l0 -1295 115 0 116 0 -3 1135 c-2 624 -1 1135 2 1135 3
-1 383 -510 845 -1133 l841 -1132 157 -3 157 -3 0 1296 0 1295 -121 0 -120 0
3 -1139 c2 -627 1 -1138 -2 -1136 -3 2 -385 514 -850 1139 l-845 1135 -147 1
-148 0 0 -1295z"/>
<path d="M20015 3723 c-264 -680 -490 -1263 -502 -1295 l-22 -59 135 3 136 3
144 380 c79 209 148 390 153 403 l11 22 574 0 c447 0 576 -3 583 -12 6 -7 77
-190 159 -405 l149 -393 137 0 136 0 -26 69 c-15 38 -241 620 -502 1295 l-475
1226 -155 0 -155 0 -480 -1237z m688 877 c26 -76 137 -376 247 -666 110 -289
200 -532 200 -540 0 -12 -78 -14 -506 -14 -401 0 -505 3 -501 13 2 6 99 262
215 567 116 305 227 606 248 668 21 61 40 112 43 112 4 0 27 -63 54 -140z"/>
<path d="M21863 4948 c2 -7 210 -334 461 -725 l456 -713 0 -570 0 -570 130 0
130 0 0 569 0 569 456 713 c251 393 459 720 461 727 4 9 -27 12 -133 12 l-139
0 -385 -615 c-212 -338 -387 -615 -390 -615 -3 0 -178 277 -389 615 l-385 615
-139 0 c-107 0 -138 -3 -134 -12z"/>
<path d="M24370 3665 l0 -1295 890 0 890 0 0 110 0 110 -760 0 -760 0 0 505 0
505 665 0 665 0 0 105 0 105 -665 0 -665 0 0 470 0 470 720 0 720 0 0 105 0
105 -850 0 -850 0 0 -1295z"/>
<path d="M26400 4850 l0 -110 455 0 455 0 0 -1185 0 -1185 130 0 130 0 0 1185
0 1185 455 0 455 0 0 110 0 110 -1040 0 -1040 0 0 -110z"/>
<path d="M29075 3723 c-264 -680 -490 -1263 -502 -1295 l-22 -59 135 3 136 3
144 380 c79 209 148 390 153 403 l11 22 574 0 c447 0 576 -3 583 -12 6 -7 77
-190 159 -405 l149 -393 137 0 136 0 -26 69 c-15 38 -241 620 -502 1295 l-475
1226 -155 0 -155 0 -480 -1237z m688 877 c26 -76 137 -376 247 -666 110 -289
200 -532 200 -540 0 -12 -78 -14 -506 -14 -401 0 -505 3 -501 13 2 6 99 262
215 567 116 305 227 606 248 668 21 61 40 112 43 112 4 0 27 -63 54 -140z"/>
<path d="M31260 3665 l0 -1295 115 0 116 0 -3 1135 c-2 624 -1 1135 2 1135 3
-1 383 -510 845 -1133 l841 -1132 157 -3 157 -3 0 1296 0 1295 -121 0 -120 0
3 -1139 c2 -627 1 -1138 -2 -1136 -3 2 -385 514 -850 1139 l-845 1135 -147 1
-148 0 0 -1295z"/>
<path d="M4023 3283 c9 -2 25 -2 35 0 9 3 1 5 -18 5 -19 0 -27 -2 -17 -5z"/>
</g>
</svg>
